<?xml version="1.0" standalone="no"?>
<!DOCTYPE svg PUBLIC "-//W3C//DTD SVG 20010904//EN"
 "http://www.w3.org/TR/2001/REC-SVG-20010904/DTD/svg10.dtd">
<svg version="1.0" xmlns="http://www.w3.org/2000/svg"
 width="512.000000pt" height="512.000000pt" viewBox="0 0 512.000000 512.000000"
 preserveAspectRatio="xMidYMid meet">

<g transform="translate(0.000000,512.000000) scale(0.100000,-0.100000)"
fill="#fff" stroke="none">
<path d="M2422 3473 c-27 -47 -927 -1619 -1079 -1885 -2 -5 89 -8 204 -8 l208
0 394 696 c229 404 397 692 403 686 4 -4 186 -316 403 -693 l394 -684 215 -3
c119 -1 216 0 216 2 0 2 -247 442 -548 978 l-548 973 -111 3 -112 3 -39 -68z"/>
</g>
</svg>
