<svg width="171" height="48" viewBox="0 0 171 48" fill="none" xmlns="http://www.w3.org/2000/svg">
<path d="M4.04768 34.76L4.04783 26.952H6.70383C7.8345 26.952 8.9225 26.8133 9.96783 26.536C11.0132 26.2587 11.9412 25.832 12.7518 25.256C13.5838 24.68 14.2345 23.944 14.7038 23.048C15.1732 22.152 15.4078 21.096 15.4078 19.88C15.4078 18.2373 15.0345 16.9147 14.2878 15.912C13.5412 14.888 12.5278 14.152 11.2478 13.704C9.96784 13.2347 8.54917 13 6.99183 13H0.495834L0.495682 34.76H4.04768ZM6.89583 16.008C7.8985 16.008 8.74117 16.136 9.42383 16.392C10.1278 16.648 10.6718 17.0747 11.0558 17.672C11.4612 18.248 11.6638 19.048 11.6638 20.072C11.5998 20.968 11.3652 21.7147 10.9598 22.312C10.5545 22.888 9.99984 23.3147 9.29583 23.592C8.59184 23.848 7.78117 23.976 6.86383 23.976H4.04783V16.008H6.89583Z" fill="#08134D"/>
<path d="M21.279 34.76L21.2792 25.26C21.2792 23.76 23.1516 22.568 25.1516 22.568L26.9958 19.176C25.4956 19.176 22.6516 19.76 21.279 20.76L20.1518 19.26L17.6952 19.24L17.695 34.76H21.279Z" fill="#08134D"/>
<path d="M56.9959 30.76C56.2919 31.08 55.3332 31.624 54.6719 31.816C54.0319 31.9867 53.3065 32.072 52.4959 32.072C51.6212 32.072 50.8532 31.8587 50.1919 31.432C49.5305 30.984 49.0292 30.376 48.6879 29.608C48.3465 28.84 48.1759 27.9653 48.1759 26.984C48.1972 26.024 48.3785 25.16 48.7199 24.392C49.0825 23.624 49.5945 23.016 50.2559 22.568C50.9172 22.12 51.6745 21.896 52.5279 21.896C53.3385 21.896 54.0745 22.0027 54.7359 22.216C55.3972 22.408 56.7839 22.952 56.7839 22.952V19.804C56.7839 19.804 56.3271 19.613 56.0799 19.528C55.4185 19.2933 54.7679 19.1227 54.1279 19.016C53.4879 18.888 52.9545 18.824 52.5279 18.824C50.9065 18.824 49.4879 19.1653 48.2719 19.848C47.0772 20.5307 46.1492 21.4907 45.4879 22.728C44.8265 23.944 44.4959 25.3733 44.4959 27.016C44.4959 28.6373 44.8159 30.0667 45.4559 31.304C46.1172 32.52 47.0452 33.4693 48.2399 34.152C49.4345 34.8347 50.8425 35.176 52.4639 35.176C52.9119 35.176 53.4559 35.112 54.0959 34.984C54.7359 34.8773 55.3972 34.7067 56.0799 34.472C56.3061 34.3942 56.5194 34.3118 56.7199 34.2247C57.1243 34.0489 57.4763 33.854 57.7759 33.64L56.9959 30.76Z" fill="#08134D"/>
<path d="M67.2758 19.368H62.7635L62.7758 14.26L59.1795 13V19.368V22.088V30.12C59.1795 31.2507 59.4035 32.2107 59.8515 33C60.3208 33.768 60.9608 34.3547 61.7715 34.76C62.5822 35.1653 63.5635 35.368 64.7155 35.368C65.0355 35.368 65.3768 35.3253 65.7395 35.24C66.1235 35.1547 67.2758 34.76 67.2758 34.76V31.76C67.2758 31.76 66.0808 32.072 65.8035 32.136C65.5262 32.2 65.2488 32.232 64.9715 32.232C64.2248 32.232 63.6702 31.9867 63.3075 31.496C62.9448 30.984 62.7635 30.3333 62.7635 29.544V22.088H67.2758V19.368Z" fill="#08134D"/>
<path d="M73.7118 34.76V19.368H70.0958V34.76H73.7118ZM71.8558 17.256C72.4531 17.256 72.9545 17.0533 73.3598 16.648C73.7865 16.2213 73.9998 15.7093 73.9998 15.112C73.9998 14.5147 73.7865 14.0133 73.3598 13.608C72.9331 13.2027 72.4318 13 71.8558 13C71.2584 13 70.7571 13.2027 70.3518 13.608C69.9678 14.0133 69.7758 14.5147 69.7758 15.112C69.7758 15.7307 69.9678 16.2427 70.3518 16.648C70.7571 17.0533 71.2584 17.256 71.8558 17.256Z" fill="#08134D"/>
<path d="M112 34.76L111.824 14.26L108.416 13L108.448 34.76H112Z" fill="#08134D"/>
<path d="M33.7718 35.176C32.3851 35.176 31.1265 34.824 29.9958 34.12C28.8865 33.416 28.0011 32.4667 27.3398 31.272C26.6998 30.056 26.3798 28.7013 26.3798 27.208C26.3798 25.6933 26.6998 24.3387 27.3398 23.144C28.0011 21.928 28.8865 20.968 29.9958 20.264C31.1265 19.5387 32.3851 19.176 33.7718 19.176C34.9451 19.176 35.9798 19.432 36.8758 19.944C37.7931 20.4347 38.5185 21.1173 39.0518 21.992C39.5851 22.8667 39.8518 23.8587 39.8518 24.968V29.384C39.8518 30.4933 39.5851 31.4853 39.0518 32.36C38.5398 33.2347 37.8251 33.928 36.9078 34.44C35.9905 34.9307 34.9451 35.176 33.7718 35.176ZM38.4758 27.176C38.4758 23.76 35.0781 21.2719 32.0758 23.112C31.4358 23.496 30.9238 24.04 30.5398 24.744C30.1771 25.448 29.9958 26.2587 29.9958 27.176C29.9958 28.0933 30.1771 28.904 30.5398 29.608C30.9238 30.312 31.4358 30.8667 32.0758 31.272C35.1078 33.0325 38.4758 30.5993 38.4758 27.176ZM38.4758 34.76V30.728L39.0838 26.984L38.4758 23.272V19.496H41.9958V34.76H38.4758Z" fill="#08134D"/>
<path d="M87.9999 31.26C87.2959 31.58 86.8372 31.624 86.1759 31.816C85.5359 31.9867 84.8106 32.072 83.9999 32.072C83.1253 32.072 82.3573 31.8587 81.6959 31.432C81.0346 30.984 80.5333 30.376 80.1919 29.608C79.8506 28.84 79.6799 27.9653 79.6799 26.984C79.7012 26.024 79.8826 25.16 80.2239 24.392C80.5866 23.624 81.0986 23.016 81.7599 22.568C82.4212 22.12 83.1786 21.896 84.0319 21.896C84.8426 21.896 85.5786 22.0027 86.2399 22.216C86.9013 22.408 88.2879 22.952 88.2879 22.952L89.4999 20.26C89.4999 20.26 87.8312 19.613 87.5839 19.528C86.9226 19.2933 86.2719 19.1227 85.6319 19.016C84.9919 18.888 84.4586 18.824 84.0319 18.824C82.4106 18.824 80.9919 19.1653 79.7759 19.848C78.5813 20.5307 77.6533 21.4907 76.9919 22.728C76.3306 23.944 75.9999 25.3733 75.9999 27.016C75.9999 28.6373 76.3199 30.0667 76.9599 31.304C77.6212 32.52 78.5493 33.4693 79.7439 34.152C80.9386 34.8347 82.3466 35.176 83.9679 35.176C84.4159 35.176 84.9599 35.112 85.5999 34.984C86.2399 34.8773 86.9013 34.7067 87.5839 34.472C87.8101 34.3942 88.0235 34.3118 88.2239 34.2247C88.6284 34.0489 88.9804 33.854 89.2799 33.64L87.9999 31.26Z" fill="#08134D"/>
<path d="M97.276 35.176C95.8893 35.176 94.6307 34.824 93.5 34.12C92.3907 33.416 91.5053 32.4667 90.844 31.272C90.204 30.056 89.884 28.7013 89.884 27.208C89.884 25.6933 90.204 24.3387 90.844 23.144C91.5053 21.928 92.3907 20.968 93.5 20.264C94.6307 19.5387 95.8893 19.176 97.276 19.176C98.4493 19.176 99.484 19.432 100.38 19.944C101.297 20.4347 102.023 21.1173 102.556 21.992C103.089 22.8667 103.356 23.8587 103.356 24.968V29.384C103.356 30.4933 103.089 31.4853 102.556 32.36C102.044 33.2347 101.329 33.928 100.412 34.44C99.4947 34.9307 98.4493 35.176 97.276 35.176ZM101.98 27.176C101.98 23.76 98.5823 21.2719 95.58 23.112C94.94 23.496 94.428 24.04 94.044 24.744C93.6813 25.448 93.5 26.2587 93.5 27.176C93.5 28.0933 93.6813 28.904 94.044 29.608C94.428 30.312 94.94 30.8667 95.58 31.272C98.612 33.0325 101.98 30.5993 101.98 27.176ZM101.98 34.76V30.728L102.588 26.984L101.98 23.272V19.496H105.5V34.76H101.98Z" fill="#08134D"/>
<rect x="118.5" y="3.5" width="49" height="41" rx="0.5" stroke="#3D55CC"/>
<rect x="164.5" y="0.5" width="6" height="6" rx="0.5" fill="#F5F6FA" stroke="#3D55CC"/>
<rect x="164.5" y="41.5" width="6" height="6" rx="0.5" fill="#F5F6FA" stroke="#3D55CC"/>
<rect x="115.5" y="41.5" width="6" height="6" rx="0.5" fill="#F5F6FA" stroke="#3D55CC"/>
<path d="M134.024 13H129L129.032 26.632C129.032 28.36 129.416 29.864 130.184 31.144C130.973 32.424 132.072 33.416 133.48 34.12C134.888 34.824 136.52 35.176 138.376 35.176C140.275 35.1547 141.917 34.8027 143.304 34.12C144.712 33.416 145.8 32.424 146.568 31.144C147.357 29.864 147.752 28.36 147.752 26.632V13H142.728V26.344C142.728 27.368 142.536 28.232 142.152 28.936C141.789 29.6187 141.277 30.1413 140.616 30.504C139.976 30.8453 139.229 31.016 138.376 31.016C137.544 31.016 136.797 30.8453 136.136 30.504C135.475 30.1627 134.952 29.6507 134.568 28.968C134.205 28.264 134.024 27.3893 134.024 26.344V13Z" fill="#3D55CC"/>
<path d="M156.244 34.76V13L151.252 13V34.76H156.244Z" fill="#3D55CC"/>
<rect x="115.5" y="0.5" width="6" height="6" rx="0.5" fill="#F5F6FA" stroke="#3D55CC"/>
</svg>
